<?xml version="1.0" encoding="UTF-8" standalone="no"?>
<!DOCTYPE svg PUBLIC "-//W3C//DTD SVG 1.1//EN"
 "http://www.w3.org/Graphics/SVG/1.1/DTD/svg11.dtd">
<!-- Generated by graphviz version 2.38.0 (20140413.2041)
 -->
<!-- Title: G Pages: 1 -->
<svg width="1307pt" height="423pt"
 viewBox="0.00 0.00 1306.52 423.00" xmlns="http://www.w3.org/2000/svg" xmlns:xlink="http://www.w3.org/1999/xlink">
<g id="graph0" class="graph" transform="scale(1 1) rotate(0) translate(4 419)">
<title>G</title>
<polygon fill="white" stroke="none" points="-4,4 -4,-419 1302.52,-419 1302.52,4 -4,4"/>
<g id="clust1" class="cluster"><title>cluster_chapter1</title>
<polygon fill="none" stroke="black" points="384.483,-8 384.483,-299 930.483,-299 930.483,-8 384.483,-8"/>
<text text-anchor="middle" x="657.483" y="-283.8" font-family="Times New Roman,serif" font-size="14.00">Chapter 1</text>
</g>
<!-- Welcome to the Applied Category Theory Course! -->
<g id="node1" class="node"><title>Welcome to the Applied Category Theory Course!</title>
<ellipse fill="none" stroke="black" cx="869.483" cy="-397" rx="195.765" ry="18"/>
<text text-anchor="middle" x="869.483" y="-393.3" font-family="Times New Roman,serif" font-size="14.00">Welcome to the Applied Category Theory Course!</text>
</g>
<!-- Book: &#39;Seven Sketches in Compositionality&#39; -->
<g id="node2" class="node"><title>Book: &#39;Seven Sketches in Compositionality&#39;</title>
<g id="a_node2"><a xlink:href="https://arxiv.org/pdf/1803.05316.pdf" xlink:title="Book: &#39;Seven Sketches in Compositionality&#39;">
<polygon fill="lightgrey" stroke="lightgrey" points="717.483,-343 457.483,-343 457.483,-307 717.483,-307 717.483,-343"/>
<text text-anchor="middle" x="587.483" y="-321.3" font-family="Times New Roman,serif" font-size="14.00">Book: &#39;Seven Sketches in Compositionality&#39;</text>
</a>
</g>
</g>
<!-- Welcome to the Applied Category Theory Course!&#45;&gt;Book: &#39;Seven Sketches in Compositionality&#39; -->
<g id="edge1" class="edge"><title>Welcome to the Applied Category Theory Course!&#45;&gt;Book: &#39;Seven Sketches in Compositionality&#39;</title>
<path fill="none" stroke="black" d="M804.787,-379.941C763.516,-369.696 709.764,-356.353 666.046,-345.501"/>
<polygon fill="black" stroke="black" points="666.858,-342.097 656.309,-343.084 665.171,-348.891 666.858,-342.097"/>
</g>
<!-- Navigating this website -->
<g id="node3" class="node"><title>Navigating this website</title>
<ellipse fill="none" stroke="black" cx="869.483" cy="-325" rx="93.6835" ry="18"/>
<text text-anchor="middle" x="869.483" y="-321.3" font-family="Times New Roman,serif" font-size="14.00">Navigating this website</text>
</g>
<!-- Welcome to the Applied Category Theory Course!&#45;&gt;Navigating this website -->
<g id="edge2" class="edge"><title>Welcome to the Applied Category Theory Course!&#45;&gt;Navigating this website</title>
<path fill="none" stroke="black" d="M869.483,-378.697C869.483,-370.983 869.483,-361.712 869.483,-353.112"/>
<polygon fill="black" stroke="black" points="872.983,-353.104 869.483,-343.104 865.983,-353.104 872.983,-353.104"/>
</g>
<!-- Lecture 1 &#45; Introduction -->
<g id="node6" class="node"><title>Lecture 1 &#45; Introduction</title>
<ellipse fill="none" stroke="black" cx="1098.48" cy="-325" rx="97.4827" ry="18"/>
<text text-anchor="middle" x="1098.48" y="-321.3" font-family="Times New Roman,serif" font-size="14.00">Lecture 1 &#45; Introduction</text>
</g>
<!-- Welcome to the Applied Category Theory Course!&#45;&gt;Lecture 1 &#45; Introduction -->
<g id="edge5" class="edge"><title>Welcome to the Applied Category Theory Course!&#45;&gt;Lecture 1 &#45; Introduction</title>
<path fill="none" stroke="black" d="M922.885,-379.676C958.16,-368.894 1004.38,-354.766 1040.54,-343.711"/>
<polygon fill="black" stroke="black" points="1041.92,-346.951 1050.46,-340.68 1039.87,-340.256 1041.92,-346.951"/>
</g>
<!-- Mistakes in &#39;Seven Sketches in Compositionality&#39; -->
<g id="node4" class="node"><title>Mistakes in &#39;Seven Sketches in Compositionality&#39;</title>
<ellipse fill="none" stroke="black" cx="188.483" cy="-250" rx="188.467" ry="18"/>
<text text-anchor="middle" x="188.483" y="-246.3" font-family="Times New Roman,serif" font-size="14.00">Mistakes in &#39;Seven Sketches in Compositionality&#39;</text>
</g>
<!-- Book: &#39;Seven Sketches in Compositionality&#39;&#45;&gt;Mistakes in &#39;Seven Sketches in Compositionality&#39; -->
<g id="edge3" class="edge"><title>Book: &#39;Seven Sketches in Compositionality&#39;&#45;&gt;Mistakes in &#39;Seven Sketches in Compositionality&#39;</title>
<path fill="none" stroke="black" d="M457.36,-310.801C431.787,-307.498 405.223,-303.568 380.483,-299 338.635,-291.273 292.338,-279.787 255.693,-269.989"/>
<polygon fill="black" stroke="black" points="256.191,-266.498 245.624,-267.274 254.368,-273.257 256.191,-266.498"/>
</g>
<!-- Chapter 1 -->
<g id="node5" class="node"><title>Chapter 1</title>
<ellipse fill="none" stroke="black" cx="587.483" cy="-250" rx="46.2923" ry="18"/>
<text text-anchor="middle" x="587.483" y="-246.3" font-family="Times New Roman,serif" font-size="14.00">Chapter 1</text>
</g>
<!-- Book: &#39;Seven Sketches in Compositionality&#39;&#45;&gt;Chapter 1 -->
<g id="edge4" class="edge"><title>Book: &#39;Seven Sketches in Compositionality&#39;&#45;&gt;Chapter 1</title>
<path fill="none" stroke="black" d="M587.483,-306.7C587.483,-298.245 587.483,-287.869 587.483,-278.373"/>
<polygon fill="black" stroke="black" points="590.983,-278.176 587.483,-268.176 583.983,-278.176 590.983,-278.176"/>
</g>
<!-- Lecture 3 &#45; Chapter 1: Posets -->
<g id="node8" class="node"><title>Lecture 3 &#45; Chapter 1: Posets</title>
<ellipse fill="none" stroke="black" cx="758.483" cy="-178" rx="116.979" ry="18"/>
<text text-anchor="middle" x="758.483" y="-174.3" font-family="Times New Roman,serif" font-size="14.00">Lecture 3 &#45; Chapter 1: Posets</text>
</g>
<!-- Chapter 1&#45;&gt;Lecture 3 &#45; Chapter 1: Posets -->
<g id="edge8" class="edge"><title>Chapter 1&#45;&gt;Lecture 3 &#45; Chapter 1: Posets</title>
<path fill="none" stroke="black" d="M618.055,-236.485C643.627,-226.017 680.567,-210.896 710.142,-198.789"/>
<polygon fill="black" stroke="black" points="711.533,-202.001 719.462,-194.974 708.881,-195.523 711.533,-202.001"/>
</g>
<!-- Exercise 1 &#45; Chapter 1 -->
<g id="node9" class="node"><title>Exercise 1 &#45; Chapter 1</title>
<ellipse fill="none" stroke="black" cx="507.483" cy="-178" rx="91.784" ry="18"/>
<text text-anchor="middle" x="507.483" y="-174.3" font-family="Times New Roman,serif" font-size="14.00">Exercise 1 &#45; Chapter 1</text>
</g>
<!-- Chapter 1&#45;&gt;Exercise 1 &#45; Chapter 1 -->
<g id="edge9" class="edge"><title>Chapter 1&#45;&gt;Exercise 1 &#45; Chapter 1</title>
<path fill="none" stroke="black" d="M569.33,-233.116C558.992,-224.07 545.846,-212.567 534.334,-202.494"/>
<polygon fill="black" stroke="black" points="536.511,-199.748 526.68,-195.797 531.901,-205.016 536.511,-199.748"/>
</g>
<!-- Lecture 2 &#45; What is Applied Category Theory? -->
<g id="node7" class="node"><title>Lecture 2 &#45; What is Applied Category Theory?</title>
<ellipse fill="none" stroke="black" cx="1118.48" cy="-250" rx="180.068" ry="18"/>
<text text-anchor="middle" x="1118.48" y="-246.3" font-family="Times New Roman,serif" font-size="14.00">Lecture 2 &#45; What is Applied Category Theory?</text>
</g>
<!-- Lecture 1 &#45; Introduction&#45;&gt;Lecture 2 &#45; What is Applied Category Theory? -->
<g id="edge6" class="edge"><title>Lecture 1 &#45; Introduction&#45;&gt;Lecture 2 &#45; What is Applied Category Theory?</title>
<path fill="none" stroke="black" d="M1103.22,-306.7C1105.56,-298.154 1108.44,-287.645 1111.07,-278.067"/>
<polygon fill="black" stroke="black" points="1114.51,-278.745 1113.78,-268.176 1107.76,-276.896 1114.51,-278.745"/>
</g>
<!-- Lecture 2 &#45; What is Applied Category Theory?&#45;&gt;Lecture 3 &#45; Chapter 1: Posets -->
<g id="edge7" class="edge"><title>Lecture 2 &#45; What is Applied Category Theory?&#45;&gt;Lecture 3 &#45; Chapter 1: Posets</title>
<path fill="none" stroke="black" d="M1039.92,-233.725C980.054,-222.083 897.951,-206.119 837.875,-194.437"/>
<polygon fill="black" stroke="black" points="838.539,-191.001 828.054,-192.528 837.203,-197.872 838.539,-191.001"/>
</g>
<!-- Lecture 4 &#45; Chapter 1: Galois Connections -->
<g id="node12" class="node"><title>Lecture 4 &#45; Chapter 1: Galois Connections</title>
<ellipse fill="none" stroke="black" cx="758.483" cy="-106" rx="164.371" ry="18"/>
<text text-anchor="middle" x="758.483" y="-102.3" font-family="Times New Roman,serif" font-size="14.00">Lecture 4 &#45; Chapter 1: Galois Connections</text>
</g>
<!-- Lecture 3 &#45; Chapter 1: Posets&#45;&gt;Lecture 4 &#45; Chapter 1: Galois Connections -->
<g id="edge12" class="edge"><title>Lecture 3 &#45; Chapter 1: Posets&#45;&gt;Lecture 4 &#45; Chapter 1: Galois Connections</title>
<path fill="none" stroke="black" d="M758.483,-159.697C758.483,-151.983 758.483,-142.712 758.483,-134.112"/>
<polygon fill="black" stroke="black" points="761.983,-134.104 758.483,-124.104 754.983,-134.104 761.983,-134.104"/>
</g>
<!-- Exercise 2 &#45; Chapter 1 -->
<g id="node10" class="node"><title>Exercise 2 &#45; Chapter 1</title>
<ellipse fill="none" stroke="black" cx="484.483" cy="-106" rx="91.784" ry="18"/>
<text text-anchor="middle" x="484.483" y="-102.3" font-family="Times New Roman,serif" font-size="14.00">Exercise 2 &#45; Chapter 1</text>
</g>
<!-- Exercise 1 &#45; Chapter 1&#45;&gt;Exercise 2 &#45; Chapter 1 -->
<g id="edge10" class="edge"><title>Exercise 1 &#45; Chapter 1&#45;&gt;Exercise 2 &#45; Chapter 1</title>
<path fill="none" stroke="black" d="M501.798,-159.697C499.235,-151.898 496.15,-142.509 493.299,-133.829"/>
<polygon fill="black" stroke="black" points="496.55,-132.512 490.103,-124.104 489.9,-134.697 496.55,-132.512"/>
</g>
<!-- Exercise 3 &#45; Chapter 1 -->
<g id="node11" class="node"><title>Exercise 3 &#45; Chapter 1</title>
<ellipse fill="none" stroke="black" cx="484.483" cy="-34" rx="91.784" ry="18"/>
<text text-anchor="middle" x="484.483" y="-30.3" font-family="Times New Roman,serif" font-size="14.00">Exercise 3 &#45; Chapter 1</text>
</g>
<!-- Exercise 2 &#45; Chapter 1&#45;&gt;Exercise 3 &#45; Chapter 1 -->
<g id="edge11" class="edge"><title>Exercise 2 &#45; Chapter 1&#45;&gt;Exercise 3 &#45; Chapter 1</title>
<path fill="none" stroke="black" d="M484.483,-87.6966C484.483,-79.9827 484.483,-70.7125 484.483,-62.1124"/>
<polygon fill="black" stroke="black" points="487.983,-62.1043 484.483,-52.1043 480.983,-62.1044 487.983,-62.1043"/>
</g>
<!-- Lecture 5 &#45; Chapter 1: Galois Connections -->
<g id="node13" class="node"><title>Lecture 5 &#45; Chapter 1: Galois Connections</title>
<ellipse fill="none" stroke="black" cx="758.483" cy="-34" rx="164.371" ry="18"/>
<text text-anchor="middle" x="758.483" y="-30.3" font-family="Times New Roman,serif" font-size="14.00">Lecture 5 &#45; Chapter 1: Galois Connections</text>
</g>
<!-- Lecture 4 &#45; Chapter 1: Galois Connections&#45;&gt;Lecture 5 &#45; Chapter 1: Galois Connections -->
<g id="edge13" class="edge"><title>Lecture 4 &#45; Chapter 1: Galois Connections&#45;&gt;Lecture 5 &#45; Chapter 1: Galois Connections</title>
<path fill="none" stroke="black" d="M758.483,-87.6966C758.483,-79.9827 758.483,-70.7125 758.483,-62.1124"/>
<polygon fill="black" stroke="black" points="761.983,-62.1043 758.483,-52.1043 754.983,-62.1044 761.983,-62.1043"/>
</g>
</g>
</svg>
